<svg id="Layer_1" xmlns="http://www.w3.org/2000/svg" viewBox="0 0 488.2 334.4"><style>.st0{fill:#FFFFFF;}</style><path class="st0" d="M93.8 331.2h-1.7l-3.5-8.7v11.7h-2.1v-15.6H89l3.9 9.5 3.9-9.5h2.6v15.6h-2.1v-11.3-.4l-3.5 8.7zM105.5 323.7c0-.5 0-.9.1-1.3s.2-.7.3-1c.2-.5.5-.9.8-1.3.3-.4.7-.7 1.1-.9s.8-.4 1.3-.6c.5-.1.9-.2 1.4-.2h.2c.5 0 1 .1 1.4.2.5.1.9.3 1.3.6s.8.6 1.1.9c.3.4.6.8.8 1.3.1.3.2.7.3 1 .1.4.1.8.1 1.3v5.3c0 .5 0 .9-.1 1.3s-.2.7-.3 1c-.2.5-.5.9-.8 1.3-.3.4-.7.7-1.1.9s-.8.4-1.3.6c-.5.1-.9.2-1.4.2h-.2c-.5 0-1-.1-1.4-.2-.5-.1-.9-.3-1.3-.6s-.8-.6-1.1-.9c-.3-.4-.6-.8-.8-1.3-.1-.3-.2-.7-.3-1-.1-.4-.1-.8-.1-1.3v-5.3zm7.9 0c0-.4 0-.7-.1-1 0-.3-.1-.6-.2-.8-.2-.5-.6-.9-1-1.1-.5-.2-.9-.3-1.4-.3h-.2c-.5 0-1 .1-1.4.3-.5.2-.8.6-1 1.1-.1.2-.2.5-.2.8 0 .3-.1.6-.1 1v5.3c0 .4 0 .7.1 1 0 .3.1.6.2.8.2.5.6.9 1 1.1.5.2.9.3 1.4.3h.2c.5 0 1-.1 1.4-.3.5-.2.8-.6 1-1.1.1-.2.2-.5.2-.8 0-.3.1-.6.1-1v-5.3zM125.9 331.7l3.6-13.1h2.3l-4.4 15.6h-2.9l-4.4-15.6h2.3l3.5 13.1zM136.7 318.6h2.2v15.6h-2.2v-15.6zM145.2 334.2v-15.6h4.7c1.2 0 2.2.3 3 .8.8.5 1.4 1.2 1.8 2.2.2.6.4 1.4.4 2.4v4.9c0 1-.1 1.8-.4 2.4-.4 1-1 1.7-1.8 2.2-.8.5-1.8.8-3 .8h-4.7zm4.7-2.2c.7 0 1.3-.1 1.7-.3.4-.2.8-.6 1-1.1.2-.4.3-1 .3-1.7V324c0-.7-.1-1.3-.3-1.7-.2-.5-.6-.9-1-1.1-.4-.2-1-.3-1.7-.3h-2.5V332h2.5zM161 323.7c0-.5 0-.9.1-1.3s.2-.7.3-1c.2-.5.5-.9.8-1.3.3-.4.7-.7 1.1-.9s.8-.4 1.3-.6c.5-.1.9-.2 1.4-.2h.2c.5 0 1 .1 1.4.2.5.1.9.3 1.3.6s.8.6 1.1.9c.3.4.6.8.8 1.3.1.3.2.7.3 1 .1.4.1.8.1 1.3v5.3c0 .5 0 .9-.1 1.3s-.2.7-.3 1c-.2.5-.5.9-.8 1.3-.3.4-.7.7-1.1.9s-.8.4-1.3.6c-.5.1-.9.2-1.4.2h-.2c-.5 0-1-.1-1.4-.2-.5-.1-.9-.3-1.3-.6s-.8-.6-1.1-.9c-.3-.4-.6-.8-.8-1.3-.1-.3-.2-.7-.3-1-.1-.4-.1-.8-.1-1.3v-5.3zm7.9 0c0-.4 0-.7-.1-1 0-.3-.1-.6-.2-.8-.2-.5-.6-.9-1-1.1-.5-.2-.9-.3-1.4-.3h-.2c-.5 0-1 .1-1.4.3-.5.2-.8.6-1 1.1-.1.2-.2.5-.2.8 0 .3-.1.6-.1 1v5.3c0 .4 0 .7.1 1 0 .3.1.6.2.8.2.5.6.9 1 1.1.5.2.9.3 1.4.3h.2c.5 0 1-.1 1.4-.3.5-.2.8-.6 1-1.1.1-.2.2-.5.2-.8 0-.3.1-.6.1-1v-5.3zM184.1 323c0-.3-.1-.7-.2-1s-.3-.6-.5-.8-.5-.4-.8-.6-.7-.2-1.2-.2-.9.1-1.3.2c-.3.1-.6.3-.8.5-.2.2-.3.4-.4.7s-.1.5-.1.7c0 .3.1.6.2.9.1.2.3.5.5.6.2.2.4.3.6.5.2.1.5.2.8.3l1.4.5c.6.2 1.1.4 1.6.7.5.3.9.6 1.3 1s.7.8.9 1.3c.2.5.3 1.1.3 1.8s-.1 1.3-.4 1.8c-.2.5-.6 1-1 1.4s-1 .7-1.6.9c-.6.2-1.3.3-2 .3-.8 0-1.5-.1-2.2-.4s-1.2-.6-1.6-1c-.4-.4-.8-.9-1-1.5-.2-.6-.4-1.2-.4-1.8h2.2c0 .4.1.7.2 1s.4.6.6.9l.9.6s.7.2 1.1.2c.8 0 1.5-.2 2-.6s.8-1 .8-1.8c0-.4-.1-.7-.2-1s-.3-.5-.6-.7c-.2-.2-.5-.4-.8-.5-.3-.1-.6-.3-.9-.4l-1.4-.5c-.5-.2-1-.4-1.4-.6s-.8-.5-1.2-.8-.6-.7-.8-1.2-.3-1.1-.3-1.8.1-1.2.4-1.7c.2-.5.6-.9 1-1.3.4-.3.9-.6 1.5-.8s1.2-.3 1.9-.3 1.4.1 2 .3c.6.2 1.1.5 1.5.9.4.4.8.9 1 1.5s.3 1.3.3 2h-1.9zM202.1 328.1v6h-2.2v-15.6h4.7c.5 0 1 0 1.3.1.4 0 .7.1.9.2.9.3 1.6.9 2.2 1.7.5.8.8 1.7.8 2.8 0 1.1-.3 2-.8 2.8-.5.8-1.2 1.3-2.2 1.7-.3.1-.6.2-.9.2-.3 0-.8.1-1.3.1h-2.5zm2.5-2.1c.5 0 .9 0 1.1-.1.3-.1.5-.1.7-.3.4-.2.7-.5.9-.9.2-.4.3-.8.3-1.3s-.1-1-.3-1.4c-.2-.4-.5-.7-.9-.9-.2-.1-.4-.2-.7-.3-.3-.1-.6-.1-1.1-.1h-2.5v5.3h2.5zM215.5 318.6h9.1v2.1h-6.9v4.4h5.7v2.1h-5.7v4.8h6.9v2.1h-9.1v-15.5zM230.2 318.6h2.2V332h7v2.1h-9.2v-15.5zM247.3 329.5l-1.3 4.7h-2.3l4.4-15.6h3.2l4.4 15.6h-2.3l-1.3-4.7h-4.8zm2.4-8.7l-1.8 6.6h3.7l-1.9-6.6zM268.2 318.6h9.1v2.1h-6.9v4.4h5.7v2.1h-5.7v4.8h6.9v2.1h-9.1v-15.5zM281.6 334.2l4.6-8.1-4.2-7.5h2.5l2.9 5.4 2.9-5.4h2.5l-4.2 7.5 4.6 8.1h-2.5l-3.4-6-3.4 6h-2.3zM304.9 330.8c.2-.5.3-1 .3-1.7h2.2c0 .5-.1.9-.1 1.3-.1.4-.1.7-.3 1-.2.5-.5.9-.8 1.3-.3.4-.7.7-1.1.9s-.8.4-1.3.6c-.5.1-.9.2-1.4.2h-.2c-.5 0-1-.1-1.4-.2-.5-.1-.9-.3-1.3-.6s-.8-.6-1.1-.9c-.3-.4-.6-.8-.8-1.3-.1-.3-.2-.7-.3-1-.1-.4-.1-.8-.1-1.3v-5.3c0-.5 0-.9.1-1.3s.2-.7.3-1c.2-.5.5-.9.8-1.3.3-.4.7-.7 1.1-.9s.8-.4 1.3-.6c.5-.1.9-.2 1.4-.2h.2c.5 0 1 .1 1.4.2.5.1.9.3 1.3.6s.8.6 1.1.9c.3.4.6.8.8 1.3.2.6.4 1.3.4 2.2h-2.2c0-.3 0-.6-.1-.9 0-.3-.1-.5-.2-.7-.2-.5-.6-.9-1-1.1-.5-.2-.9-.3-1.4-.3h-.2c-.5 0-1 .1-1.4.3-.5.2-.8.6-1 1.1-.1.2-.2.5-.2.8 0 .3-.1.6-.1 1v5.3c0 .4 0 .7.1 1 0 .3.1.6.2.8.2.5.6.9 1 1.1.5.2.9.3 1.4.3h.2c.5 0 1-.1 1.4-.3.4-.4.7-.7 1-1.3zM313 318.6h9.1v2.1h-6.9v4.4h5.7v2.1h-5.7v4.8h6.9v2.1H313v-15.5zM327.6 318.6h2.2V332h7v2.1h-9.2v-15.5zM342.1 318.6h9.1v2.1h-6.9v4.4h5.7v2.1h-5.7v4.8h6.9v2.1h-9.1v-15.5zm8.5-1.2h-1.7l-2.4-2.7-2.4 2.7h-1.7l3.2-4h1.7l3.3 4zM358.8 322.4v11.8h-2.1v-15.6h2.6l5.6 11.8v-11.8h2.1v15.6h-2.6l-5.6-11.8zM380.6 330.8c.2-.5.3-1 .3-1.7h2.2c0 .5-.1.9-.1 1.3-.1.4-.1.7-.3 1-.2.5-.5.9-.8 1.3-.3.4-.7.7-1.1.9s-.8.4-1.3.6c-.5.1-.9.2-1.4.2h-.1c-.5 0-1-.1-1.4-.2-.5-.1-.9-.3-1.3-.6s-.8-.6-1.1-.9c-.3-.4-.6-.8-.8-1.3-.1-.3-.2-.7-.3-1-.1-.4-.1-.8-.1-1.3v-5.3c0-.5 0-.9.1-1.3s.2-.7.3-1c.2-.5.5-.9.8-1.3.3-.4.7-.7 1.1-.9s.8-.4 1.3-.6c.5-.1.9-.2 1.4-.2h.2c.5 0 1 .1 1.4.2.5.1.9.3 1.3.6s.8.6 1.1.9c.3.4.6.8.8 1.3.2.6.4 1.3.4 2.2H381c0-.3 0-.6-.1-.9 0-.3-.1-.5-.2-.7-.2-.5-.6-.9-1-1.1-.5-.2-.9-.3-1.4-.3h-.3c-.5 0-1 .1-1.4.3-.5.2-.8.6-1 1.1-.1.2-.2.5-.2.8 0 .3-.1.6-.1 1v5.3c0 .4 0 .7.1 1 0 .3.1.6.2.8.2.5.6.9 1 1.1.5.2.9.3 1.4.3h.2c.5 0 1-.1 1.4-.3.5-.4.8-.7 1-1.3zM388.8 318.6h2.2v15.6h-2.2v-15.6zM399.4 329.5l-1.3 4.7h-2.3l4.4-15.6h3.2l4.4 15.6h-2.3l-1.3-4.7h-4.8zm2.4-8.7l-1.8 6.6h3.7l-1.9-6.6zM385.2 87.9l-14.7-25.5c-1.7-3-5-4.9-8.4-4.9-1.3 0-2.7.3-3.9.8L343 65c-3-3.3-6.2-6.5-9.5-9.5l6.7-15.2c2-4.5.3-9.8-4-12.3l-26.6-15.4c-1.5-.9-3.2-1.3-4.9-1.3-3.1 0-6 1.5-7.8 4L287 28.6c-4.3-1.4-8.6-2.6-13-3.5l-1.8-16.5c-.5-4.9-4.7-8.6-9.7-8.6h-30.7c-5 0-9.1 3.7-9.7 8.6l-1.8 16.5c-4.4.9-8.8 2.1-13.1 3.5l-9.8-13.3c-1.8-2.5-4.8-4-7.8-4-1.7 0-3.4.5-4.9 1.3L158.1 28c-4.3 2.5-6 7.8-4 12.3l6.7 15.2c-3.3 3-6.5 6.2-9.5 9.5L136 58.3c-1.2-.5-2.5-.8-3.9-.8-3.5 0-6.7 1.9-8.4 4.9L109 87.9 0 99.3h146.7c15.3-40.6 54.4-69.5 100.4-69.5 45.9 0 85.1 28.9 100.4 69.5h140.7l-103-11.4zM108.9 204.3l14.7 25.5c1.7 3 5 4.9 8.4 4.9 1.3 0 2.7-.3 3.9-.8l15.2-6.7c3 3.3 6.2 6.5 9.5 9.5l-6.7 15.2c-2 4.5-.3 9.8 4 12.3l26.6 15.4c1.5.9 3.2 1.3 4.9 1.3 3.1 0 6-1.5 7.8-4l9.8-13.3c4.3 1.4 8.6 2.6 13 3.5l1.8 16.5c.5 4.9 4.7 8.6 9.7 8.6h30.7c5 0 9.1-3.7 9.7-8.6l1.8-16.5c4.4-.9 8.8-2.1 13.1-3.5l9.8 13.3c1.8 2.5 4.8 4 7.8 4 1.7 0 3.4-.5 4.9-1.3l26.6-15.4c4.3-2.5 6-7.8 4-12.3l-6.7-15.2c3.3-3 6.5-6.2 9.5-9.5l15.2 6.7c1.2.5 2.5.8 3.9.8 3.5 0 6.7-1.9 8.4-4.9l14.7-25.5 102.9-11.4H347.5c-15.3 40.6-54.4 69.5-100.4 69.5-45.9 0-85.1-28.9-100.4-69.5H0l108.9 11.4z"/><path class="st0" d="M219.1 82.2c0-1 .1-1.9.4-2.7.2-.8.6-1.5 1-2.1.4-.6.8-1.2 1.3-1.7s1-1 1.6-1.4c.5-.4.9-.7 1.4-1.1.4-.4.8-.7 1.2-1.1.3-.4.6-.8.8-1.2.2-.4.3-.9.3-1.4 0-.6-.2-1.1-.6-1.4-.4-.3-.9-.5-1.5-.5-.3 0-.5 0-.8.1-.3.1-.5.2-.7.4-.2.2-.4.4-.5.7-.1.3-.2.7-.2 1.2v.6h-3.6V70c0-.4 0-.8.1-1.2.1-.4.2-.8.3-1 .4-1 1.1-1.8 2-2.4.9-.6 2.1-.9 3.3-.9.8 0 1.6.1 2.3.4.7.2 1.3.6 1.8 1s.9 1 1.2 1.6c.3.6.4 1.3.4 2.1 0 .7-.1 1.4-.4 2.1s-.6 1.2-.9 1.8c-.4.5-.8 1-1.3 1.5s-1 .9-1.5 1.3c-.3.3-.7.6-1.1.9-.4.3-.8.7-1.1 1-.3.3-.6.7-.9 1.1-.2.4-.4.7-.4 1.1h7.7v3.5h-11.6v-1.7zm28-4.6c0 .5 0 1-.1 1.4-.1.4-.1.8-.2 1.1-.2.6-.5 1.1-.8 1.6-.4.5-.8.9-1.3 1.2-.5.3-1.1.6-1.7.8-.6.2-1.3.3-1.9.3s-1.3-.1-1.9-.3c-.6-.2-1.2-.4-1.7-.8-.5-.3-.9-.8-1.3-1.2-.4-.5-.7-1-.8-1.6-.1-.3-.2-.7-.2-1.1-.1-.4-.1-.9-.1-1.4v-6.7c0-1.1.1-1.9.3-2.5.2-.6.5-1.1.8-1.6.4-.5.8-.9 1.3-1.2.5-.3 1.1-.6 1.7-.8s1.3-.3 1.9-.3 1.3.1 1.9.3c.6.2 1.2.4 1.7.8.5.3.9.8 1.3 1.2.4.5.7 1 .8 1.6.2.6.3 1.5.3 2.5v6.7zm-3.7-6.7v-.8c0-.3-.1-.5-.2-.7-.2-.4-.4-.8-.8-1-.4-.2-.8-.4-1.3-.4s-1 .1-1.3.4c-.4.2-.7.6-.8 1-.1.2-.1.4-.2.7v8.3c0 .3.1.5.2.7.2.4.4.8.8 1 .4.2.8.4 1.3.4s1-.1 1.3-.4c.4-.2.7-.6.8-1 .1-.2.1-.4.2-.7v-7.5zm7-2.8l4.4-3.4h3.2v19.1h-3.7V69.2l-3.9 3v-4.1zm12.4 2.7c0-1.1.1-1.9.3-2.5.2-.6.5-1.1.8-1.6.4-.5.8-.9 1.3-1.2.5-.3 1.1-.6 1.7-.8.6-.2 1.3-.3 1.9-.3.7 0 1.3.1 1.9.3.6.2 1.2.4 1.7.8.5.3.9.8 1.3 1.2.4.5.7 1 .8 1.6.2.6.3 1.5.3 2.5v6.7c0 .5 0 1-.1 1.4-.1.4-.1.8-.2 1.1-.2.6-.5 1.1-.8 1.6-.4.5-.8.9-1.3 1.2-.5.3-1.1.6-1.7.8-.6.2-1.3.3-1.9.3-.7 0-1.4-.1-2.1-.3-.7-.2-1.3-.5-1.8-.9s-1-.9-1.3-1.6c-.4-.6-.6-1.4-.7-2.3h3.9c.2.6.4 1 .7 1.2.3.2.8.3 1.3.3s1-.1 1.3-.4.7-.6.8-1c.1-.2.1-.4.2-.7v-2.8c-.5.5-1 .9-1.6 1.1-.6.2-1.2.3-1.8.3-1.2 0-2.2-.3-3.1-.9-.9-.6-1.5-1.5-1.8-2.7-.1-.3-.1-.6-.2-.9 0-.3-.1-.7-.1-1.2v-.3zm3.7.3v.8s.1.4.1.6c.1.4.4.7.7.9.3.2.8.3 1.3.3.7 0 1.3-.2 1.9-.7.5-.5.8-1.1.8-1.9V71v-.8c0-.3-.1-.5-.2-.7-.2-.4-.4-.8-.8-1-.4-.2-.8-.4-1.3-.4s-1 .1-1.3.4c-.4.2-.7.6-.8 1-.1.2-.1.4-.2.7v.9zM216.2 230.7c-.3 0-.4.1-.4.3v3.3c0 .3.1.4.4.4h4.1v1h-4.9c-1 0-1.5-.4-1.5-1.6v-1.4-1.4c0-1.2.5-1.6 1.5-1.6h4.8v1h-4m10.1-1v2.4h-3.2v-2.4h-2v6h2V233h3.2v2.7h2v-6h-2zm16.1 0l-2 4.9c0 .1-.1.1-.2.1s-.2 0-.2-.1l-1.9-4.9h-7.3c-1 0-1.5.4-1.5 1.6v2.8c0 1.2.5 1.6 1.5 1.6h5.1v-1h-4.3c-.3 0-.4-.1-.4-.4V233h4.3v-1h-4.3v-1c0-.3.1-.3.4-.3h4.6c.6 1.5 1.7 4.1 1.8 4.3.1.3.4.7.9.7h1.9c.5 0 .7-.4.8-.7.1-.3 2.3-5.3 2.3-5.3h-1.5zm12.1 1c-.3 0-.3.1-.3.3v3.3c0 .3.1.4.3.4h2.6c.3 0 .3-.1.3-.4V231c0-.3-.1-.3-.3-.3h-2.6m5 .6v2.8c0 1.2-.5 1.6-1.5 1.6h-4.2c-1 0-1.5-.4-1.5-1.6v-1.4-1.4c0-1.2.5-1.6 1.5-1.6h4.2c.9 0 1.5.3 1.5 1.6m3 3.4v-5h-2v6h6.2v-1h-4.2zm6-5c-1 0-1.5.4-1.5 1.6v2.8c0 1.2.5 1.6 1.5 1.6h5.1v-1h-4.3c-.3 0-.4-.1-.4-.4V233h4.2v-1H269v-1c0-.3.1-.3.4-.3h6.7v5h2v-5h2.3v-1h-11.9zm-19.4 3.4c-.1 0 0-.1 0 0 .1-.1.9-.1.9-.1.7 0 1.3-.2 1.3-1.1v-.8c0-1-.5-1.4-1.3-1.4h-5.9v6h2v-5h3c.2 0 .2.1.2.2v1.2c0 .1-.1.2-.2.2h-2.4v.9l2.9 2.6h2.8c.1-.1-3.3-2.7-3.3-2.7m6.1-23.7v-4.7H239v4.7h-14.5l-3.4 6.8H239v4.7h16.2v-4.7h14.5l3.4-6.8h-17.9zm24.9-2.7c.2 0 .3.2.2.4l-5.8 11.4c-.1.2-.4.4-.7.4h-15.9v4.3c0 .2-.2.4-.4.4h-20.8c-.2 0-.4-.2-.4-.4v-4.3h-22.1c-.2 0-.3-.2-.2-.4l5.8-11.4c.1-.2.4-.4.7-.4h15.9v-4.3c0-.2.2-.4.4-.4h20.8c.2 0 .4.2.4.4v4.3h22.1M260.5 119v9.9h-13.4V172h-10.3v-43.1h-13.4V119h37.1zm38 9.7c-.7-1.7-1.6-3.2-2.8-4.5-1.1-1.3-2.4-2.4-3.8-3.3-1.4-.9-2.9-1.6-4.6-2-1.6-.4-3.3-.7-5-.7h-.8c-1.7 0-3.4.2-5 .7-1.7.4-3.2 1.1-4.6 2-1.4.9-2.7 2-3.8 3.3-1.1 1.3-2.1 2.8-2.8 4.5-.8 2.2-1.3 4.9-1.3 8.1v17.4c0 3.3.4 6 1.3 8.1.7 1.7 1.6 3.2 2.8 4.5 1.1 1.3 2.4 2.4 3.8 3.3 1.4.9 2.9 1.5 4.6 2 1.7.4 3.3.7 5 .7h.8c1.7 0 3.4-.2 5-.7 1.6-.4 3.1-1.1 4.6-2 1.4-.9 2.7-2 3.8-3.3 1.1-1.3 2.1-2.8 2.8-4.5.9-2.1 1.3-4.8 1.3-8.1v-17.4c0-3.2-.4-6-1.3-8.1zm-9 25.4c0 1.1-.1 2.1-.2 2.9-.1.8-.3 1.6-.6 2.2-.7 1.4-1.6 2.3-2.8 2.9-1.2.6-2.4.8-3.6.8h-.8c-1.3 0-2.5-.3-3.6-.8-1.2-.6-2.1-1.5-2.7-2.9-.3-.6-.5-1.3-.6-2.2-.1-.8-.1-1.8-.1-2.9V137c0-1.1 0-2.1.1-2.9.1-.8.3-1.6.6-2.2.7-1.4 1.6-2.3 2.7-2.9 1.2-.6 2.4-.8 3.6-.8h.8c1.2 0 2.4.3 3.6.8 1.2.6 2.1 1.5 2.8 2.9.3.6.5 1.3.6 2.2.1.8.2 1.8.2 2.9v17.1zm53.1-28c-1.9-2.7-4.4-4.7-7.5-5.9-.9-.4-2.1-.7-3.5-.9-1.4-.2-3-.3-4.9-.3h-17.2v53.1h10.3v-19.5h7.2c1.6 0 3.1-.1 4.5-.3 1.4-.2 2.6-.5 3.5-.8 3.1-1.2 5.6-3.2 7.5-5.9 1.9-2.7 2.8-5.9 2.8-9.7.1-3.8-.8-7.1-2.7-9.8zm-8.4 13.3c-.6 1.1-1.5 1.9-2.5 2.4-.5.3-1.1.5-1.9.7-.7.2-1.8.2-3.1.2h-6.8v-13.9h6.8c1.3 0 2.3.1 3.1.2.7.1 1.4.4 1.9.7 1.1.6 1.9 1.4 2.5 2.4.6 1.1.9 2.3.9 3.6 0 1.5-.3 2.7-.9 3.7zm68.6-20.4v9.9h-13.4V172h-10.3v-43.1h-13.4V119h37.1zm6.6 0h32v9.5h-21.7V140h17.9v9.5h-17.9v12.9h21.7v9.5h-32V119zm49.5 19.2v33.9h-9.6V119h10.8l16.2 33.9h.1c0-.5-.1-.9-.1-1.4V119h9.6v53.1H475l-16.1-33.9zM27.8 159c.3-.6.5-1.4.6-2.5.1-1 .2-2.3.2-3.7H39c0 2.2-.2 4.1-.4 5.6s-.5 2.8-.9 3.8c-.7 1.7-1.5 3.2-2.6 4.5-1.1 1.3-2.4 2.4-3.8 3.2-1.4.9-3 1.5-4.6 2-1.6.4-3.3.7-5.1.7h-.7c-1.7 0-3.4-.2-5-.7-1.6-.4-3.2-1.1-4.6-2-1.4-.9-2.7-2-3.8-3.2-1.1-1.3-2-2.7-2.7-4.4-.9-2.1-1.3-4.8-1.3-8.1v-17.3c0-3.3.4-6 1.3-8.1.7-1.7 1.6-3.2 2.7-4.4 1.1-1.3 2.4-2.3 3.8-3.2 1.4-.9 3-1.6 4.6-2 1.6-.4 3.3-.7 5-.7h.6c1.7 0 3.4.2 5.1.7 1.7.4 3.2 1.1 4.6 2 1.4.9 2.7 2 3.8 3.2 1.1 1.3 2 2.7 2.7 4.4.9 2.2 1.4 5.1 1.4 8.9H28.7c0-1.2-.1-2.3-.2-3.3s-.3-1.7-.6-2.4c-.6-1.4-1.5-2.3-2.7-2.9-1.2-.6-2.4-.9-3.6-.9h-.8c-1.2 0-2.4.3-3.6.9-1.2.6-2.1 1.6-2.7 2.9-.3.6-.5 1.3-.6 2.1-.1.9-.2 1.7-.2 2.6V154c0 1 .1 1.9.2 2.8.1.9.4 1.6.6 2.2.7 1.4 1.6 2.3 2.7 2.9 1.1.6 2.3.8 3.6.8h.8c1.2 0 2.4-.3 3.6-.8 1-.6 2-1.5 2.6-2.9zm19.4-39.9h10.3V162h22.1v9.9H47.2v-52.8zm47.9 0V154c0 1.1 0 2 .1 2.9.1.8.3 1.6.6 2.2.7 1.4 1.6 2.3 2.7 2.9 1.1.6 2.4.8 3.6.8h.8c1.2 0 2.4-.3 3.6-.8 1.2-.6 2.1-1.5 2.7-2.9.3-.6.5-1.3.6-2.2.1-.8.2-1.8.2-2.9v-34.9h10.3v35.1c0 3.3-.4 6-1.3 8.1-.7 1.7-1.6 3.2-2.7 4.4-1.1 1.3-2.4 2.3-3.8 3.2-1.4.9-2.9 1.6-4.5 2s-3.3.7-5 .7h-.8c-1.7 0-3.4-.2-5-.7-1.6-.4-3.2-1.1-4.6-2-1.4-.9-2.7-1.9-3.8-3.2-1.1-1.3-2-2.8-2.7-4.5-.8-2.2-1.3-4.9-1.3-8.1V119h10.3zm51.8 0c3.2 0 5.7.3 7.7.8 3 .9 5.3 2.5 7 4.6 1.7 2.1 2.6 4.9 2.6 8.3 0 4.9-2.4 8.7-7.2 11.3 3.1 1.2 5.3 3 6.8 5.2s2.1 4.6 2.1 7.2c0 3.4-.9 6.3-2.6 8.9-1.7 2.6-4.2 4.4-7.2 5.5-.9.3-2 .6-3.1.7-1.1.2-2.6.2-4.4.2h-18V119h16.3zm-6.1 9.8v11.6h6.1c.8 0 1.5 0 2-.1s1-.3 1.4-.5c1.1-.5 1.9-1.2 2.6-2.2.7-1 1-2.2 1-3.5 0-1.3-.3-2.3-1-3.1s-1.5-1.4-2.6-1.8c-.9-.3-2.1-.4-3.4-.4h-6.1zm0 20.7v12.5h7.3c1.8 0 3.2-.3 4.2-.8 1.1-.5 1.9-1.3 2.5-2.2.6-1 .8-2.1.8-3.3 0-1.3-.3-2.4-1-3.4s-1.6-1.8-2.9-2.3c-1-.4-2.3-.6-4.1-.6h-6.8zm33.4-30.5h31.9v9.5h-21.6v11.5h17.8v9.5h-17.8v12.8h21.6v9.5h-31.9v-52.8z"/></svg>