<svg id="Layer_1" xmlns="http://www.w3.org/2000/svg" viewBox="0 0 55.9 28.3"><style>.st0{fill:#fff}</style><path class="st0" d="M2 24.1h3.3v-.8h-4c-.8 0-1.3.3-1.3 1.3V27c0 1 .5 1.3 1.3 1.3h4.2v-.9H2c-.2 0-.3-.1-.3-.3v-2.8c0-.1.1-.2.3-.2m8.4-.8v2H7.7v-2H6v5h1.7v-2.2h2.7v2.2h1.7v-5zm13.6 0l-1.6 4.1c0 .1-.1.1-.2.1s-.1 0-.2-.1l-1.6-4.1h-6.1c-.8 0-1.3.3-1.3 1.3V27c0 1 .5 1.3 1.3 1.3h4.3v-.9H15c-.2 0-.3-.1-.3-.3V26h3.6v-.8h-3.6v-.8c0-.2.1-.3.3-.3h3.8c.5 1.3 1.5 3.5 1.6 3.6.1.3.3.6.8.6h1.6c.4 0 .6-.3.7-.6.1-.3 1.9-4.5 1.9-4.5H24zm10.2.8h2.2c.2 0 .3.1.3.3v2.8c0 .2-.1.3-.3.3h-2.2c-.2 0-.3-.1-.3-.3v-2.8c0-.2.1-.3.3-.3m4.2.5c0-1-.5-1.3-1.3-1.3h-3.6c-.8 0-1.3.3-1.3 1.3V27c0 1 .5 1.3 1.3 1.3h3.6c.8 0 1.3-.3 1.3-1.3v-2.4m2.5 2.9v-4.2h-1.7v5h5.3v-.8z"/><path class="st0" d="M45.9 23.3c-.8 0-1.3.3-1.3 1.3V27c0 1 .5 1.3 1.3 1.3h4.3v-.8h-3.6c-.2 0-.3-.1-.3-.3v-1.1h3.6v-.8h-3.6v-.8c0-.2.1-.3.3-.3h5.6v4.2h1.7v-4.2h1.9v-.8l-9.9-.1zm-16.3 2.9c0-.1 0-.1 0 0 0-.1.8-.1.8-.1.6 0 1.1-.2 1.1-.9v-.7c0-.8-.4-1.1-1.1-1.1h-5v5h1.7v-4.2h2.5c.2 0 .2 0 .2.1v1c0 .1-.1.1-.2.1h-2v.8l2.5 2.2h2.3c.1-.1-2.8-2.2-2.8-2.2M49.8 6.3L46.9 12H34.8v4H21.1v-4H6l2.9-5.7h12.2v-4h13.7v4h15zm5.9-2.4H37.1V.4c0-.2-.2-.4-.4-.4H19.2c-.2 0-.4.2-.4.4V4H5.5c-.2-.1-.5.1-.6.3L0 13.9c-.1.2 0 .4.2.4h18.6v3.6c0 .2.2.4.4.4h17.5c.2 0 .4-.2.4-.4v-3.6h13.3c.2 0 .4-.2.6-.4l4.9-9.6c0-.2 0-.4-.2-.4"/></svg>